<svg xmlns="http://www.w3.org/2000/svg" viewBox="0 0 128 128" width="128" height="128">
  <defs>
    <linearGradient id="bg" x1="0" y1="0" x2="1" y2="1">
      <stop offset="0" stop-color="#2ea44f"/>
      <stop offset="1" stop-color="#1a7f37"/>
    </linearGradient>
  </defs>
  <!-- 背景 -->
  <rect x="4" y="4" width="120" height="120" rx="26" fill="url(#bg)"/>
  <!-- 放大镜圈（评审的隐喻） -->
  <circle cx="62" cy="60" r="34" fill="none" stroke="#ffffff" stroke-width="7" opacity="0.95"/>
  <line x1="88" y1="88" x2="104" y2="104" stroke="#ffffff" stroke-width="9" stroke-linecap="round"/>
  <!-- 小虫身体 -->
  <ellipse cx="62" cy="66" rx="13" ry="15" fill="#ffffff"/>
  <!-- 小虫头 -->
  <circle cx="62" cy="47" r="8" fill="#ffffff"/>
  <!-- 虫眼 -->
  <circle cx="58.5" cy="45" r="1.8" fill="#1a7f37"/>
  <circle cx="65.5" cy="45" r="1.8" fill="#1a7f37"/>
  <!-- 触角 -->
  <path d="M57 41 Q53 34 49 32" stroke="#ffffff" stroke-width="2.6" fill="none" stroke-linecap="round"/>
  <path d="M67 41 Q71 34 75 32" stroke="#ffffff" stroke-width="2.6" fill="none" stroke-linecap="round"/>
  <!-- 背线 -->
  <line x1="62" y1="54" x2="62" y2="80" stroke="#1a7f37" stroke-width="2.4"/>
  <!-- 腿（左三右三） -->
  <path d="M50 58 L42 55" stroke="#ffffff" stroke-width="2.6" stroke-linecap="round"/>
  <path d="M49 66 L41 66" stroke="#ffffff" stroke-width="2.6" stroke-linecap="round"/>
  <path d="M50 74 L42 78" stroke="#ffffff" stroke-width="2.6" stroke-linecap="round"/>
  <path d="M74 58 L82 55" stroke="#ffffff" stroke-width="2.6" stroke-linecap="round"/>
  <path d="M75 66 L83 66" stroke="#ffffff" stroke-width="2.6" stroke-linecap="round"/>
  <path d="M74 74 L82 78" stroke="#ffffff" stroke-width="2.6" stroke-linecap="round"/>
</svg>
